<?xml version="1.0" encoding="utf-8"?>
<!-- Generator: Adobe Illustrator 26.3.1, SVG Export Plug-In . SVG Version: 6.00 Build 0)  -->
<svg version="1.1" id="asign" xmlns="http://www.w3.org/2000/svg" xmlns:xlink="http://www.w3.org/1999/xlink" x="0px" y="0px"
	 viewBox="0 0 224.4 189" style="enable-background:new 0 0 224.4 189;" xml:space="preserve">
<style type="text/css">
	.st0{fill:#1D2A38;}
	.st1{fill:#FF6600;}
</style>
<path id="a_x5F_up" class="st0" d="M100.7,41.1l19.8,34.3c2.2,0,4.5-0.1,6.7-0.1c5.8,0,11.5,0.1,17.2,0.4L100.7,0L52.7,83.2
	c8.3-1.9,17.2-3.5,26.5-4.7L100.7,41.1z M65.1,74.3l35.6-61.6l32.6,56.4c-2,0-4,0-6,0c-1,0-2.1,0-3.1,0l-18-31.1l-5.5-9.5l-5.5,9.5
	L75.2,72.7C71.8,73.1,68.4,73.7,65.1,74.3z"/>
<path id="orangedown" class="st1" d="M71.2,189c-24.8-10.9-39.9-25.5-39.9-41.5c0-5.3,1.7-10.5,4.8-15.4H177l-25.7-44.4
	c9.8-0.8,19.9-1.2,30.2-1.2c13.9,0,27.4,0.8,40.3,2.2c-0.7-0.2-1.5-0.5-2.2-0.7c0.8,0.2,1.5,0.5,2.3,0.7c0.9,0.1,1.7,0.2,2.6,0.3
	c-2.3-0.6-4.6-1.1-6.9-1.6c0,0,0,0,0,0c-20.9-4.7-45-7.3-70.6-7.4c-0.2,0-0.3,0-0.5,0c-5.8,0-11.6,0.1-17.2,0.4
	c-1.9,0.1-3.8,0.2-5.6,0.3h0h0c-17.8,1.1-34.6,3.5-49.7,7c-1.3,0.3-2.6,0.6-3.9,0.9c-9,2.2-17.3,4.8-24.8,7.7
	C17.3,106.9,0,122,0,138.6C0,160,28.6,178.8,71.2,189z M129.1,90.3l12.3,21.3H60.1C77.3,102,101.3,94.5,129.1,90.3z"/>
</svg>
