<?xml version="1.0" encoding="utf-8"?>
<!-- Generator: Adobe Illustrator 26.3.1, SVG Export Plug-In . SVG Version: 6.00 Build 0)  -->
<svg version="1.1" id="earth_x5F_leaf" xmlns="http://www.w3.org/2000/svg" xmlns:xlink="http://www.w3.org/1999/xlink" x="0px"
	 y="0px" viewBox="0 0 225 225" style="enable-background:new 0 0 225 225;" xml:space="preserve">
<style type="text/css">
	.st0{fill-rule:evenodd;clip-rule:evenodd;fill:#A6CE3C;}
	.st1{fill-rule:evenodd;clip-rule:evenodd;fill:#75AA43;}
	.st2{fill-rule:evenodd;clip-rule:evenodd;fill:url(#earth_00000037659527612199688700000013283702189877617332_);}
</style>
<path id="big_leaf" class="st0" d="M112.5,14c7.2-2.4,16.6-3.5,29-3.2c-3.9,15.8-3.7,32.2-9.3,44.4c27.9-19.8,43.4-24.8,72.7,5.8
	c-13.9,8.4-25.4,20.2-38,24.8c33.7,5.7,48.2,13.2,47.3,55.6c-15.8-3.9-32.2-3.7-44.4-9.3c19.8,27.9,24.8,43.4-5.8,72.7
	c-8.4-13.9-20.2-25.4-24.8-38c-4.1,23.9-9,38.2-26.6,44.1v-40.5c5.4-4.7,11.6-8.9,18.7-13c3.6-2.1,6-5.1,7.1-9
	c1.8-6.3,6-13.2,13.3-20.9c-6,12-9.6,29.8,5.4,53.7c-5.5-15.5-4.5-31.6,0.6-50.1c1.1-4,0.6-7.8-1.4-11.4c-3.2-5.8-5.1-13.5-5.4-24.2
	c4.3,12.7,14.3,27.8,41.7,34.1c-14.8-7-25.5-19.2-35-35.8c-2.1-3.6-5.1-6-9.1-7.1c-6.3-1.8-13.2-6-20.9-13.3c12,6,29.8,9.6,53.7-5.4
	c-15.5,5.5-31.6,4.5-50.1-0.5c-4-1.1-7.8-0.6-11.4,1.4c-2.1,1.2-4.5,2.2-7.2,3v-7.4c7.2-6.5,13.6-16.4,17.1-32
	c-4,8.6-9.8,15.7-17.1,22.1V14L112.5,14z M112.5,160.5c5.5-5,11.5-7.9,17-9.8c-6.7,0.2-12.3,1-17,2.4V160.5z M58.1,139.1
	C24.4,133.4,9.9,126,10.8,83.5c15.8,3.9,32.2,3.7,44.4,9.3C35.5,65,30.4,49.5,61.1,20.1c8.4,13.9,20.2,25.4,24.8,38
	C90,34.2,94.9,20,112.5,14v40.5c-5.4,4.7-11.6,8.9-18.7,13c-3.6,2.1-6,5.1-7.1,9.1c-1.8,6.3-6,13.2-13.3,20.9
	c6-12,9.6-29.8-5.4-53.7c5.5,15.5,4.5,31.6-0.6,50.1c-1.1,4-0.6,7.8,1.4,11.4c3.2,5.8,5.1,13.5,5.4,24.2
	C70,116.8,60,101.7,32.5,95.4c16.6,7.8,27.9,22.1,38.4,41.9c7.9,0.6,16.5,4.7,26.6,14.4c-12-6-29.8-9.6-53.7,5.4
	c15.5-5.5,31.6-4.5,50.1,0.6c4,1.1,7.8,0.6,11.4-1.4c2.1-1.2,4.5-2.2,7.2-3v7.4c-7.2,6.5-13.6,16.4-17.1,32
	c4.1-8.6,9.8-15.7,17.1-22.1V211c-7.2,2.4-16.6,3.5-29,3.2c3.9-15.8,3.7-32.2,9.3-44.4c-27.9,19.8-43.4,24.8-72.7-5.8
	C34,155.5,45.5,143.7,58.1,139.1L58.1,139.1z M112.5,64.5c-5.5,5-11.5,7.9-17,9.8c6.7-0.2,12.3-1,17-2.4V64.5z"/>
<path id="small-leaf" class="st1" d="M180.2,140c24.6,3.7,36.3,1.4,35.7,28.2c-17.8-0.4-25.8-1.4-28.3-13.2
	c4.2,4.7,12.7,7.4,18.2,8.3C195.9,158.6,186.4,152.2,180.2,140L180.2,140z M141,179.8c14.8,20.1,24.7,26.7,5.3,45.2
	c-12.3-12.8-17.3-19.3-10.7-29.4c-0.3,6.3,3.7,14.2,7,18.7C138.9,204.1,136.7,192.8,141,179.8L141,179.8z M84,45.2
	C69.2,25.1,59.4,18.5,78.7,0C91,12.8,96,19.3,89.4,29.4c0.3-6.3-3.7-14.2-7-18.7C86.1,20.9,88.3,32.2,84,45.2L84,45.2z M85,180.2
	c-3.7,24.6-1.4,36.3-28.2,35.7c0.4-17.8,1.4-25.8,13.2-28.3c-4.7,4.2-7.4,12.7-8.3,18.2C66.4,195.9,72.8,186.4,85,180.2L85,180.2z
	 M140,44.8c3.7-24.6,1.4-36.3,28.2-35.7c-0.4,17.8-1.4,25.8-13.2,28.3c4.7-4.2,7.4-12.7,8.3-18.2C158.6,29.1,152.2,38.6,140,44.8
	L140,44.8z M45.2,141c-20.1,14.8-26.7,24.7-45.2,5.3C12.8,134,19.3,129,29.4,135.6c-6.3-0.3-14.2,3.7-18.7,7
	C20.9,138.9,32.2,136.7,45.2,141L45.2,141z M179.8,84c20.1-14.8,26.7-24.7,45.2-5.3C212.2,91,205.7,96,195.6,89.4
	c6.3,0.3,14.2-3.7,18.7-7C204.1,86.1,192.8,88.3,179.8,84L179.8,84z M44.8,85C20.1,81.3,8.5,83.6,9.1,56.8
	c17.8,0.4,25.8,1.4,28.3,13.2c-4.2-4.7-12.7-7.4-18.2-8.3C29.1,66.4,38.6,72.8,44.8,85z"/>
<radialGradient id="earth_00000113339882068172637180000007852915356001413042_" cx="96.9007" cy="97.848" r="49.1741" gradientUnits="userSpaceOnUse">
	<stop  offset="0" style="stop-color:#FFFFFF"/>
	<stop  offset="1" style="stop-color:#009BDA"/>
</radialGradient>
<circle id="earth" style="fill-rule:evenodd;clip-rule:evenodd;fill:url(#earth_00000113339882068172637180000007852915356001413042_);" cx="112.6" cy="112.6" r="34.7"/>
</svg>
