<?xml version="1.0" encoding="utf-8"?>
<!-- Generator: Adobe Illustrator 26.3.1, SVG Export Plug-In . SVG Version: 6.00 Build 0)  -->
<svg version="1.1" id="h_x5F_sign" xmlns="http://www.w3.org/2000/svg" xmlns:xlink="http://www.w3.org/1999/xlink" x="0px" y="0px"
	 viewBox="0 0 133.5 178.2" style="enable-background:new 0 0 133.5 178.2;" xml:space="preserve">
<style type="text/css">
	.st0{fill:#FF6600;}
	.st1{fill:#1D2A38;}
</style>
<path id="big_x5F_orange" class="st0" d="M133.5,76.9v101.3c-14.8-8.5-24.4-24.4-24.4-41.9V88.4c0-9.5-7.7-17.2-17.2-17.2H41.5
	c-4.7,0-8.9,1.9-12,4.9V46.9h73.9c1.9,0,3.8,0.2,5.6,0.5C123,50.1,133.5,62.3,133.5,76.9z"/>
<path id="big_x5F_blue" class="st1" d="M103.9,102.1v29.3H30c-1.9,0-3.8-0.2-5.6-0.5c-0.3-0.1-0.5-0.1-0.8-0.2
	c-4.1-0.9-7.9-2.6-11.2-5.1C4.9,120.1,0,111.3,0,101.3V0c14.9,8.5,24.4,24.4,24.4,41.9v47.9c0,9.5,7.7,17.2,17.2,17.2h50.4
	C96.6,107,100.8,105.1,103.9,102.1z"/>
<path id="small_x5F_blue" class="st1" d="M133.5,0v56.6c-5.3-7.8-13.5-13.4-23.2-15.3c-0.4-0.1-0.8-0.1-1.2-0.2
	C109.4,23.9,118.8,8.3,133.5,0z"/>
<path id="small_x5F_orange" class="st0" d="M24.4,137.2c-0.3,17.2-9.7,32.8-24.4,41.1v-56.6c2.3,3.4,5.3,6.5,8.7,9
	c4.1,3,8.6,5,13.6,6.1l0.2,0c0.3,0.1,0.5,0.1,0.8,0.2C23.6,137,24,137.1,24.4,137.2z"/>
</svg>
