<?xml version="1.0" encoding="utf-8"?>
<!-- Generator: Adobe Illustrator 26.3.1, SVG Export Plug-In . SVG Version: 6.00 Build 0)  -->
<svg version="1.1" id="rings" xmlns="http://www.w3.org/2000/svg" xmlns:xlink="http://www.w3.org/1999/xlink" x="0px" y="0px"
	 viewBox="0 0 194.9 194.9" style="enable-background:new 0 0 194.9 194.9;" xml:space="preserve">
<style type="text/css">
	.st0{fill:#FF6600;}
	.st1{fill:#1D2A38;}
</style>
<path id="orange_x5F_round" class="st0" d="M179.4,23.5C166.6,8.4,148.4,0,128.8,0c-17.7,0-34.3,6.9-46.7,19.4
	c-9.8,9.8-16.1,22-18.4,35.4c-0.2,1.3-0.4,2.7-0.6,4.1c-0.1,1.3-0.3,2.7-0.3,4.1c-0.1,1.1-0.1,2.2-0.1,3.3l0,9v4l0,4l0,49l49,0h4h4
	c0.1-1.1,0.1-2.2,0.1-3.3V120l-4,0H75L75,83V75l0-8.9c0-1.1,0-2.2,0.1-3.3c0.1-1.4,0.2-2.7,0.4-4c0.2-1.4,0.4-2.7,0.7-4
	c2.2-10.3,7.4-19.5,14.6-26.7c9.8-9.8,23.2-15.8,38.1-15.8c29.7,0,53.9,24.2,53.9,53.9c0,14.9-6,28.3-15.8,38.1
	c-7.2,7.2-16.4,12.4-26.7,14.6v1.1l0,9c0,0.8,0,1.6,0,2.4c13.3-2.3,25.6-8.6,35.4-18.4c13.8-13.8,20.7-32.6,19.1-52.3
	C193.6,46.9,188.2,33.9,179.4,23.5z"/>
<path id="blue_x5F_round" class="st1" d="M75,75h4h4l36.9,0l0,36.9v4v4v8.9c0,1.1,0,2.2-0.1,3.3c-0.1,1.4-0.2,2.7-0.4,4
	c-0.2,1.4-0.4,2.7-0.7,4c-2.2,10.3-7.4,19.5-14.6,26.7c-9.8,9.8-23.2,15.8-38.1,15.8c-29.7,0-53.9-24.2-53.9-53.9
	c0-14.9,6-28.3,15.8-38.1c7.2-7.2,16.4-12.4,26.7-14.6V66.1c0-0.8,0-1.6,0-2.4C41.4,66,29.1,72.4,19.4,82.1
	C6.9,94.6,0,111.2,0,128.8c0,19.5,8.4,37.7,23.5,50.5c10.4,8.8,23.4,14.2,37.1,15.3c19.7,1.6,38.5-5.4,52.3-19.1
	c11.7-11.7,18.5-27,19.3-43.5c0-0.5,0-1.1,0.1-1.6c0-0.3,0-0.6,0-0.9c0-0.3,0-0.5,0-0.8l0,0v-9l0-57.1l-49,0l-4,0l-4,0
	C75,63.9,75,65,75,66.1L75,75z"/>
</svg>
