<?xml version="1.0" encoding="utf-8"?>
<!-- Generator: Adobe Illustrator 26.3.1, SVG Export Plug-In . SVG Version: 6.00 Build 0)  -->
<svg version="1.1" id="s_x5F_letter" xmlns="http://www.w3.org/2000/svg" xmlns:xlink="http://www.w3.org/1999/xlink" x="0px"
	 y="0px" viewBox="0 0 235.2 190.5" style="enable-background:new 0 0 235.2 190.5;" xml:space="preserve">
<style type="text/css">
	.st0{fill:#FF6600;}
	.st1{fill:#1D2A38;}
</style>
<path class="st0" d="M63.7,53.6H0l75.9,83.6h63.7L63.7,53.6z M18.7,61.9H60l60.9,67.1H79.6L18.7,61.9z"/>
<path class="st1" d="M127.8,0L63.7,50.4H0l14-11C46.5,13.9,86.5,0,127.8,0z"/>
<path class="st0" d="M159.3,53.3H95.6l75.9,83.6h63.7L159.3,53.3z M114.3,61.6h41.3l60.9,67.1h-41.3L114.3,61.6z"/>
<path class="st1" d="M235.2,140.1l-14,11c-16.2,12.7-34.3,22.6-53.6,29.2c-19.2,6.7-39.6,10.1-60.2,10.1l64.1-50.4H235.2z"/>
</svg>
