<?xml version="1.0" encoding="utf-8"?>
<!-- Generator: Adobe Illustrator 26.3.1, SVG Export Plug-In . SVG Version: 6.00 Build 0)  -->
<svg version="1.1" id="spin" xmlns="http://www.w3.org/2000/svg" xmlns:xlink="http://www.w3.org/1999/xlink" x="0px" y="0px"
	 viewBox="0 0 185.6 185.7" style="enable-background:new 0 0 185.6 185.7;" xml:space="preserve">
<style type="text/css">
	.st0{fill:#FF6600;}
	.st1{fill:#1D2A38;}
</style>
<path id="left_x5F_orange" class="st0" d="M52.7,63.7L116.3,0L91,6.9C64.7,14.1,42.5,26.6,25.1,44L5.5,63.7
	c6.5,6.5,15.1,9.8,23.6,9.8C37.6,73.4,46.2,70.2,52.7,63.7z M31.5,50.4c14.6-14.6,32.9-25.5,54.4-32.5L46.3,57.3
	c-4.6,4.6-10.7,7.1-17.3,7.1c-3.4,0-6.7-0.7-9.7-2L31.5,50.4z"/>
<path id="left_x5F_blue" class="st1" d="M44,160.5l19.6,19.6c6.5-6.5,9.8-15.1,9.8-23.6c0-8.5-3.3-17.1-9.8-23.6L0,69.2l6.9,25.3
	C14.1,120.8,26.6,143,44,160.5z M57.3,139.2c7.3,7.3,9,18,5.1,27l-12.1-12.1c-14.6-14.6-25.5-32.9-32.5-54.4L57.3,139.2z"/>
<path id="right_x5F_orange" class="st0" d="M156.6,112.3c-8.5,0-17.1,3.3-23.6,9.8l-63.7,63.7l25.3-6.9
	c26.3-7.2,48.5-19.7,65.9-37.1l19.6-19.6c-3.3-3.3-7-5.7-11-7.3C165.1,113.1,160.8,112.3,156.6,112.3z M154.2,135.4
	c-14.6,14.6-32.9,25.5-54.4,32.5l39.5-39.5c4.6-4.6,10.7-7.1,17.3-7.1c3.4,0,6.7,0.7,9.7,2L154.2,135.4z"/>
<path id="right_x5F_blue" class="st1" d="M122,52.9l63.7,63.7l-6.9-25.3c-7.2-26.3-19.7-48.5-37.1-65.9L122,5.7
	C109,18.7,109,39.8,122,52.9z M123.2,19.5l12.1,12.1c14.6,14.6,25.5,32.9,32.5,54.4l-39.5-39.5C121.1,39.2,119.3,28.5,123.2,19.5z"
	/>
</svg>
