<?xml version="1.0" encoding="utf-8"?>
<!-- Generator: Adobe Illustrator 26.3.1, SVG Export Plug-In . SVG Version: 6.00 Build 0)  -->
<svg version="1.1" id="tick_x5F_sign" xmlns="http://www.w3.org/2000/svg" xmlns:xlink="http://www.w3.org/1999/xlink" x="0px"
	 y="0px" viewBox="0 0 239.9 167" style="enable-background:new 0 0 239.9 167;" xml:space="preserve">
<style type="text/css">
	.st0{fill:#1D2A38;}
	.st1{fill:#FF6600;}
</style>
<polygon class="st0" points="68.5,167 68.5,167 62.3,156.1 12.5,70 0,70 56,167 56,167 56,167 68.5,167 "/>
<polygon class="st0" points="118.7,167 118.7,167 112.5,156.1 106.2,145.3 99.9,134.4 93.7,123.5 87.4,112.7 62.7,70 50.2,70 
	81.1,123.5 87.4,134.4 93.7,145.3 99.9,156.1 106.2,167 106.2,167 106.2,167 118.7,167 "/>
<polygon class="st0" points="137.6,156.1 131.3,145.3 125,134.4 118.8,123.5 112.5,112.7 106.2,101.8 99.9,91 87.8,70 75.3,70 
	93.7,101.8 106.2,123.5 112.5,134.4 118.8,145.3 125,156.1 131.3,167 131.3,167 131.3,167 143.8,167 143.8,167 143.8,167 "/>
<polygon class="st1" points="164.6,0 152.1,0 106.3,79.3 112.5,90.2 "/>
<polygon class="st0" points="81.1,167 93.6,167 93.6,167 93.6,167 87.4,156.1 81.1,145.3 74.8,134.4 37.6,70 25.1,70 68.6,145.3 
	74.8,156.1 81.1,167 81.1,167 "/>
<polygon class="st1" points="125.1,111.9 189.7,0 177.2,0 118.8,101.1 118.9,101.2 "/>
<polygon class="st1" points="137.6,133.7 214.8,0 202.3,0 131.4,122.8 131.4,122.9 "/>
<polygon class="st1" points="239.9,0 227.4,0 143.9,144.6 144,144.7 150.2,155.4 "/>
</svg>
