<?xml version="1.0" encoding="utf-8"?>
<!-- Generator: Adobe Illustrator 26.3.1, SVG Export Plug-In . SVG Version: 6.00 Build 0)  -->
<svg version="1.1" id="two_x5F_circle" xmlns="http://www.w3.org/2000/svg" xmlns:xlink="http://www.w3.org/1999/xlink" x="0px"
	 y="0px" viewBox="0 0 166.2 195.9" style="enable-background:new 0 0 166.2 195.9;" xml:space="preserve">
<style type="text/css">
	.st0{fill:#1D2A38;}
	.st1{fill:#FF6600;}
</style>
<path class="st0" d="M156.4,144.2c-2.6,4.6-5.7,8.9-9.2,12.9l0.1,0.1l-3.3,3.3c-14.5,14.6-33.9,22.7-54.5,22.7
	c-20.5,0-39.8-8-54.3-22.5c-14.5-14.5-22.5-33.8-22.5-54.3c0-1.5,0-3.1,0.1-4.6c0-0.2,0-0.4,0-0.6l0-0.1c0-0.1,0-0.3,0-0.4l0-0.1
	c0-0.3,0.1-0.6,0.1-1c0-0.3,0-0.5,0.1-0.8c0-0.4,0.1-0.8,0.1-1.2c0-0.2,0.1-0.5,0.1-0.8c0-0.3,0.1-0.7,0.1-1.1
	c0-0.2,0.1-0.4,0.1-0.6c0-0.3,0.1-0.7,0.2-1.1c0-0.2,0.1-0.4,0.1-0.7c0-0.2,0.1-0.4,0.1-0.6c0-0.2,0.1-0.5,0.1-0.8
	c0-0.2,0.1-0.5,0.1-0.8c0.1-0.3,0.1-0.6,0.2-0.9c0.4-2.1,1-4.2,1.6-6.2l0-0.1c0.1-0.3,0.2-0.5,0.2-0.8c0.1-0.2,0.1-0.5,0.2-0.7
	c0.4-1.3,0.9-2.7,1.4-4c0.1-0.2,0.1-0.4,0.2-0.6c0.1-0.2,0.2-0.4,0.2-0.6c0.1-0.3,0.2-0.5,0.3-0.8c0.1-0.2,0.2-0.4,0.3-0.7l0-0.1
	c0.1-0.3,0.3-0.6,0.4-1c0.1-0.2,0.2-0.5,0.3-0.7c1.9-4.2,4.3-8.2,7-12l0.4-0.6c0.3-0.4,0.6-0.8,0.9-1.2c0.1-0.2,0.3-0.4,0.5-0.6
	c0.3-0.4,0.7-0.9,1-1.3c0.2-0.2,0.4-0.5,0.6-0.7c0.2-0.2,0.4-0.5,0.6-0.7c0.2-0.2,0.4-0.5,0.6-0.7c0.2-0.3,0.5-0.6,0.7-0.8l-9-9
	C8.2,62.7,0,84,0,106.3c0,23.9,9.3,46.4,26.2,63.3c16.9,16.9,39.4,26.2,63.3,26.2c24,0,46.5-9.4,63.5-26.4c4.8-4.8,9.1-10.2,12.7-16
	L156.4,144.2z"/>
<path class="st1" d="M41.8,154.1c12.8,12.8,29.7,19.8,47.8,19.8c0.6,0,1.1,0,1.7,0c0.3,0,0.6,0,0.8,0h0c0.4,0,0.8,0,1.2-0.1
	c0.3,0,0.7,0,1-0.1c0.2,0,0.3,0,0.5,0l0.2,0c0.3,0,0.6-0.1,0.9-0.1c0.3,0,0.5,0,0.8-0.1c0.2,0,0.4,0,0.5-0.1l0.3,0
	c0.2,0,0.4-0.1,0.7-0.1c0.8-0.1,1.7-0.2,2.5-0.4c0.2,0,0.4-0.1,0.7-0.1l0.1,0c0.2,0,0.4-0.1,0.5-0.1l0.1,0c0.2,0,0.5-0.1,0.7-0.1
	c0.6-0.1,1.2-0.2,1.8-0.4c0.4-0.1,0.8-0.2,1.2-0.3l0.1,0c0.1,0,0.2,0,0.3-0.1c0.3-0.1,0.6-0.1,0.8-0.2c0.2-0.1,0.4-0.1,0.7-0.2
	c0.2-0.1,0.4-0.1,0.5-0.1c0.2,0,0.3-0.1,0.4-0.1l0.1,0c0.2,0,0.3-0.1,0.5-0.1c0.3-0.1,0.5-0.2,0.8-0.2c0.2-0.1,0.4-0.1,0.6-0.2
	c0.6-0.2,1.1-0.4,1.7-0.6c0.2-0.1,0.3-0.1,0.4-0.2l0.1,0c0.2-0.1,0.4-0.1,0.5-0.2c0.3-0.1,0.5-0.2,0.8-0.3c0.2-0.1,0.4-0.1,0.6-0.2
	c0.3-0.1,0.7-0.3,1-0.4l0.9-0.4c0.3-0.1,0.6-0.2,0.9-0.4c0.2-0.1,0.3-0.1,0.4-0.2l0.1-0.1c0.2-0.1,0.5-0.2,0.7-0.3
	c1.4-0.7,2.8-1.4,4.2-2.2c0.1-0.1,0.3-0.2,0.4-0.2c0.3-0.2,0.6-0.4,0.9-0.5l1.5-1c0.7-0.4,1.4-0.9,2.1-1.4c0.2-0.1,0.4-0.3,0.6-0.4
	l0.1-0.1c0.2-0.1,0.3-0.2,0.5-0.3l0,0c0.1-0.1,0.2-0.2,0.3-0.2l0,0c0.2-0.1,0.4-0.3,0.6-0.4c0.2-0.2,0.4-0.3,0.6-0.5
	c0.1-0.1,0.3-0.2,0.4-0.3l0.1-0.1c0.2-0.2,0.4-0.3,0.6-0.5c0.2-0.2,0.4-0.4,0.6-0.5l0.1,0c0.4-0.3,0.8-0.7,1.2-1
	c0.1-0.1,0.2-0.2,0.4-0.3l-9-9c-9.9,8.4-22.4,13-35.5,13c-30.2,0-54.8-24.6-54.8-54.8c0-14.7,5.8-28.5,16.2-38.9
	c4.9-4.9,10.8-8.8,17.1-11.5l-9.6-9.6c-6.1,3.2-11.7,7.2-16.6,12.1C29.1,71.2,22,88.2,22,106.3C22,124.4,29,141.3,41.8,154.1z"/>
<path class="st1" d="M166.2,89.5c0-23.9-9.3-46.4-26.2-63.3C123,9.3,100.5,0,76.6,0c-24,0-46.5,9.4-63.5,26.4
	c-4.8,4.8-9.1,10.2-12.7,16l9.3,9.3c2.6-4.6,5.7-8.9,9.2-12.9l-0.1-0.1l3.3-3.3C36.7,20.8,56,12.7,76.6,12.7
	c20.5,0,39.8,8,54.3,22.5c14.5,14.5,22.5,33.8,22.5,54.3c0,1.5,0,3.1-0.1,4.6c0,0.2,0,0.4,0,0.6c0,0.2,0,0.3,0,0.5l0,0.1
	c0,0.3-0.1,0.6-0.1,1c0,0.3,0,0.5-0.1,0.8c0,0.4-0.1,0.8-0.1,1.2c0,0.2-0.1,0.5-0.1,0.8c0,0.3-0.1,0.7-0.1,1.1
	c0,0.2-0.1,0.4-0.1,0.6c0,0.4-0.1,0.7-0.2,1.1c0,0.2-0.1,0.4-0.1,0.7c0,0.2-0.1,0.4-0.1,0.6c0,0.2-0.1,0.5-0.1,0.8
	c0,0.2-0.1,0.5-0.2,0.8c-0.1,0.3-0.1,0.6-0.2,0.9c-0.4,2.1-1,4.2-1.6,6.2c-0.1,0.3-0.2,0.6-0.3,0.9c-0.1,0.2-0.1,0.5-0.2,0.7
	c-0.4,1.3-0.9,2.7-1.4,4c-0.1,0.2-0.1,0.4-0.2,0.6c-0.1,0.2-0.2,0.4-0.3,0.6c-0.1,0.3-0.2,0.5-0.3,0.8c-0.1,0.2-0.2,0.4-0.3,0.7
	l0,0.1c-0.1,0.3-0.3,0.6-0.4,1c-0.1,0.2-0.2,0.5-0.3,0.7c-1.9,4.2-4.3,8.2-7,12l-0.4,0.6c-0.3,0.4-0.6,0.8-0.9,1.2
	c-0.1,0.2-0.3,0.4-0.5,0.6c-0.3,0.4-0.7,0.9-1,1.3c-0.2,0.2-0.4,0.5-0.6,0.7c-0.2,0.2-0.4,0.4-0.6,0.7l0,0c-0.2,0.2-0.4,0.5-0.6,0.7
	c-0.2,0.3-0.5,0.5-0.7,0.8l9,9C157.9,133.2,166.2,111.9,166.2,89.5z"/>
<path class="st0" d="M98.1,140l9.6,9.6c6.1-3.2,11.7-7.2,16.6-12.1c12.8-12.8,19.9-29.8,19.9-47.9c0-18-7-35-19.8-47.7
	C111.6,29,94.7,22,76.6,22c-0.6,0-1.1,0-1.7,0c-0.3,0-0.6,0-0.8,0h0c-0.4,0-0.8,0-1.2,0.1c-0.3,0-0.7,0-1,0.1c-0.2,0-0.3,0-0.5,0
	l-0.2,0c-0.3,0-0.6,0.1-0.9,0.1c-0.3,0-0.5,0.1-0.8,0.1c-0.2,0-0.4,0-0.5,0.1l-0.3,0c0,0-0.1,0-0.1,0c-0.2,0-0.4,0.1-0.7,0.1
	c-0.8,0.1-1.7,0.2-2.5,0.4C65.2,23,65,23,64.8,23l-0.1,0c-0.2,0-0.3,0.1-0.5,0.1l-0.1,0c-0.2,0-0.4,0.1-0.7,0.1
	c-0.6,0.1-1.2,0.2-1.8,0.4c-0.4,0.1-0.8,0.2-1.2,0.3l-0.1,0c-0.1,0-0.2,0-0.3,0.1c-0.3,0.1-0.6,0.1-0.8,0.2
	c-0.2,0.1-0.4,0.1-0.7,0.2c-0.2,0.1-0.4,0.1-0.5,0.1c-0.2,0-0.3,0.1-0.4,0.1l-0.1,0c-0.2,0-0.3,0.1-0.5,0.1
	c-0.3,0.1-0.5,0.2-0.8,0.2c-0.2,0.1-0.4,0.1-0.6,0.2c-0.6,0.2-1.1,0.4-1.7,0.6c-0.2,0.1-0.3,0.1-0.4,0.2l-0.1,0
	c-0.2,0.1-0.4,0.1-0.5,0.2c-0.3,0.1-0.5,0.2-0.8,0.3c-0.2,0.1-0.4,0.2-0.6,0.2c-0.3,0.1-0.7,0.3-1,0.4l-0.9,0.4
	c-0.3,0.1-0.6,0.2-0.9,0.4c-0.2,0.1-0.3,0.1-0.4,0.2l-0.1,0.1c-0.2,0.1-0.5,0.2-0.7,0.3c-1.4,0.7-2.8,1.4-4.2,2.2
	c-0.2,0.1-0.3,0.2-0.4,0.2c-0.3,0.2-0.6,0.3-0.9,0.5l-1,0.6c-0.2,0.1-0.4,0.3-0.6,0.4c-0.7,0.4-1.4,0.9-2.1,1.4
	c-0.2,0.1-0.4,0.3-0.6,0.4l-0.1,0.1c-0.2,0.1-0.3,0.2-0.5,0.4l-0.1,0c-0.1,0.1-0.2,0.2-0.3,0.2l0,0c-0.2,0.1-0.4,0.3-0.6,0.4
	c-0.2,0.2-0.4,0.3-0.6,0.5c-0.1,0.1-0.3,0.2-0.4,0.3L35,36.3c-0.2,0.2-0.4,0.3-0.6,0.5c-0.2,0.2-0.5,0.4-0.7,0.6
	c-0.4,0.3-0.8,0.7-1.2,1c-0.1,0.1-0.2,0.2-0.4,0.3l9,9c9.9-8.4,22.4-13,35.5-13c30.2,0,54.8,24.6,54.8,54.8
	c0,14.7-5.8,28.5-16.2,38.9C110.3,133.3,104.4,137.3,98.1,140z"/>
</svg>
